<svg xmlns="http://www.w3.org/2000/svg" viewBox="0 0 113.1 121.1"><defs><style>.cls-1{fill:#fff;}</style></defs><g id="Layer_3" data-name="Layer 3"><path d="M108.6,25.7a3.7,3.7,0,0,0-1.9-2.5,4,4,0,0,0-1.9-.2h-.6v.6a3.9,3.9,0,0,1-1.6,2.9,3.6,3.6,0,0,1-4.2-.8,2.9,2.9,0,0,1-.3-2.2,5.8,5.8,0,0,1,2.5-3.2,4,4,0,0,1,2.7-.5h.6l.2-.5c.3-.8.7-1.4,1-2.1a1.9,1.9,0,0,0,.3-1.5,2.7,2.7,0,0,0-1.6-1.4c-2-.8-2.7-.8-3.5-.7H100c-4,.1-7.1,3.3-8.3,8.4a11.3,11.3,0,0,0,.1,7.1L80.1,44.5l-1.6,2.1c-.1-6.9-.3-13.9-.6-20.8v-.7h-.7c-10.1-.2-20.4-.2-30.5,0s-19.1.7-28.6,1.3h-.7v.7c.4,4.9.6,9.9.8,14.7.3,8.6.5,17.2.4,25.8v.7l11.3.2v4c-2.3,1.8-4.8,3.5-7.2,5.1s-4.9,3.1-7.4,4.5c-2.2-2-5.8-2.4-9.1-1.1l-.5.2v.7c-.1,1.4-.1,2.8-.2,4.2v1.6l1.3-1A3.6,3.6,0,0,1,9.1,86a2.2,2.2,0,0,1,1.4.8,2.6,2.6,0,0,1-.2,2.8,3.1,3.1,0,0,1-3.2,1l-.9-.3v1c-.1,1.3-.1,2.6-.2,3.9v.6h.7l1.9.2a7.4,7.4,0,0,0,4-1,10.3,10.3,0,0,0,4.9-7.9l.3-.2,6.5-4.2,5.7-3.7v5.8c0,4.8,0,9.6-.1,14.3v.7h7.3c-.4,1.5-.8,3-1.1,4.6s-.5,2.3-.7,3.5v.6l.5.3a46.3,46.3,0,0,1,6.4,2.9l3,1.8.7.4,2.8-4.9-6.5-3.8L44,99.7H64.3L64,105c-.1,1.2-.2,2.4-.2,3.6v.4l8.5,6.5,3.6-4.3-5.5-4.3.3-4.5c.1-1,.1-2,.1-2.9h5.2v-.7q.3-8.1,0-16.2c-.2-5-.6-10.1-1.2-15l2.9-.2h.7v-.7c.1-2.7.1-5.5.2-8.3l5.8-7.9,12.2-17A9.1,9.1,0,0,0,108.6,26v-.2ZM23.4,81.5l-6.5,4.2-1,.7v.4a8.7,8.7,0,0,1-4.1,7,7.8,7.8,0,0,1-4.3.8,19.3,19.3,0,0,0,.1-2.4,4.4,4.4,0,0,0,3.9-1.7,4.1,4.1,0,0,0,.2-4.6,4.2,4.2,0,0,0-2.4-1.4,7.8,7.8,0,0,0-2.2.3c0-.8.1-1.7.1-2.6a7.3,7.3,0,0,1,7.5,1.3l.4.5.5-.3c2.6-1.5,5.3-3.1,7.9-4.9s4.3-2.9,6.4-4.4v2.9Zm17,24.4,6.3,3.7-1.3,2.2-2.5-1.4a41.1,41.1,0,0,0-6-2.8l.6-2.9a38.9,38.9,0,0,1,1.2-4.9h3.7Zm33.3,5.5-1.7,2-6.7-5.1c.1-1.1.1-2.1.2-3.2l.3-5.6h3.5c-.1.9-.1,1.9-.2,2.8l-.3,4.9v.4ZM74.5,98H31.3c.1-4.5.1-8.9.1-13.4V68.5h8.8c9.7,0,19.6-.3,29.4-.7h3.6q.9,7.3,1.2,15C74.6,87.8,74.6,92.9,74.5,98ZM77,51v8.2h0a5.7,5.7,0,0,0-.1,1.3c0,1.8,0,3.6-.1,5.5l-4.1.2H70.2c-10,.4-20.1.7-30,.7H20.1c.1-8.4-.1-16.8-.4-25.1-.2-4.7-.4-9.4-.7-14,9.2-.6,18.5-1,27.7-1.3s19.9-.2,29.8,0c.3,7.3.5,14.7.5,22V51Zm27.3-20.1a7.8,7.8,0,0,1-7.8,1l-.6-.2-.3.5L83.1,49.6l-4.6,6.3V49h0l2.8-3.6,12-15.5.3-.4-.2-.4c-1.3-2.6-.5-5.6-.3-6.6,1.1-4.4,3.7-7.1,7-7.2h.3a5.4,5.4,0,0,1,2.8.6l.8.4-.2.4-.9,1.7a5.9,5.9,0,0,0-3,.6,7,7,0,0,0-3.2,4.3,3.7,3.7,0,0,0,.5,3.3,4.8,4.8,0,0,0,6.1,1.3,5,5,0,0,0,2.3-3.4h.5a2,2,0,0,1,1,1.3A7.6,7.6,0,0,1,104.3,30.9Z"/><path class="cls-1" d="M41.9,40.9c-1.9,0-3.3,2.5-3.3,5.8s1.4,5.8,3.3,5.8,3.3-2.5,3.3-5.8S43.8,40.9,41.9,40.9Zm0,10.1c-.7,0-1.8-1.6-1.8-4.3s1.1-4.3,1.8-4.3,1.8,1.7,1.8,4.3S42.6,51,41.9,51Z"/><path class="cls-1" d="M58,39.8c-1.9,0-3.3,2.6-3.3,5.9s1.4,5.8,3.3,5.8,3.3-2.5,3.3-5.8S59.9,39.8,58,39.8ZM58,50c-.8,0-1.8-1.7-1.8-4.3s1-4.4,1.8-4.4,1.8,1.7,1.8,4.4S58.7,50,58,50Z"/><path d="M41.9,40.9c-1.9,0-3.3,2.5-3.3,5.8s1.4,5.8,3.3,5.8,3.3-2.5,3.3-5.8S43.8,40.9,41.9,40.9Zm0,10.1c-.7,0-1.8-1.6-1.8-4.3s1.1-4.3,1.8-4.3,1.8,1.7,1.8,4.3S42.6,51,41.9,51Z"/><path d="M58,39.8c-1.9,0-3.3,2.6-3.3,5.9s1.4,5.8,3.3,5.8,3.3-2.5,3.3-5.8S59.9,39.8,58,39.8ZM58,50c-.8,0-1.8-1.7-1.8-4.3s1-4.4,1.8-4.4,1.8,1.7,1.8,4.4S58.7,50,58,50Z"/></g></svg>